<svg
  height="256"
  viewBox="0 0 256 256"
  width="256"
  xmlns="http://www.w3.org/2000/svg"
>
  <defs>
    <circle id="dot" r="17.066668" shape-rendering="geometricPrecision" />
    <rect
      fill-opacity="0.5"
      height="85.333336"
      id="verticalLine"
      width="17.066668"
    />
    <rect
      fill-opacity="0.5"
      height="17.066668"
      id="horizontalLine"
      width="85.333336"
    />
    <g fill-opacity="0" id="pointer" pointer-events="bounding-box">
      <circle
        cx="43.5"
        cy="43.5"
        fill="red"
        r="17.066668"
        shape-rendering="geometricPrecision"
      />
      <rect
        fill-opacity="0"
        height="85.333336"
        shape-rendering="crispEdges"
        width="85.333336"
      />
      <animate
        attributeName="fill-opacity"
        begin="mouseover"
        dur="100ms"
        fill="freeze"
        repeatCount="1"
        values="0;0.5"
      />
      <animate
        attributeName="fill-opacity"
        begin="mouseout"
        dur="100ms"
        fill="freeze"
        repeatCount="1"
        values="0.5;0"
      />
    </g>
  </defs>
  <rect fill="white" height="256" width="256" />
  <path
    d="M43.5,0 V256 M128.5,0 V256 M213.5,0 V256 M0,43.5 H256 M0,128.5 H256 M0,213.5 H256"
    fill="none"
    shape-rendering="crispEdges"
    stroke="black"
    stroke-width="1"
  />
  <use fill="black" href="#dot" x="128.5" y="128.5" />
  <use fill="red" href="#dot" x="128.5" y="43.5" />
  <use fill="red" href="#dot" x="43.5" y="128.5" />
  <use fill="red" href="#dot" x="213.5" y="128.5" />
  <use fill="red" href="#dot" x="128.5" y="213.5" />
  <use fill="black" href="#dot" x="43.5" y="43.5" />
  <use fill="black" href="#dot" x="213.5" y="43.5" />
  <use fill="black" href="#dot" x="43.5" y="213.5" />
  <use fill="black" href="#dot" x="213.5" y="213.5" />
  <path
    d="M128.5,43.5 L140.56796,31.432043 L225.56796,116.432045 L213.5,128.5 z"
    fill="red"
    fill-opacity="0.5"
    shape-rendering="crispEdges"
  />
  <path
    d="M43.5,128.5 L31.432043,140.56796 L116.432045,225.56796 L128.5,213.5 z"
    fill="red"
    fill-opacity="0.5"
    shape-rendering="crispEdges"
  />
  <path
    d="M43.5,128.5 L31.432043,116.432045 L116.432045,31.432043 L128.5,43.5 z"
    fill="red"
    fill-opacity="0.5"
    shape-rendering="crispEdges"
  />
  <path
    d="M128.5,213.5 L140.56796,225.56796 L225.56796,140.56796 L213.5,128.5 z"
    fill="red"
    fill-opacity="0.5"
    shape-rendering="crispEdges"
  />
  <path
    d="M128.5,213.5 L213.5,128.5 L128.5,43.5 L43.5,128.5"
    fill="red"
    fill-opacity="0.5"
    shape-rendering="crispEdges"
  />
</svg>
